# xmcd
#
# Track frame offsets:
#	182
#	37167
#	52657
#	72962
#	90387
#	120725
#	143312
#	156995
#	171140
#	190410
#	204297
#	226137
#
# Disc length: 3113 seconds
#
# Revision: 0
# Processed by: cddbd v1.4PL0 Copyright (c) Steve Scherf et al.
# Submitted via: EasyCDDAExtractor 4.5.2.1
#
DISCID=960c270c
DTITLE=Bobby Blue Bland - Jazz and Blues Collection - CD 62 
DYEAR=1900
DGENRE=Blues
TTITLE0=Mel's Groove
TTITLE1=Ain't That Lovin' You
TTITLE2=I'll Take Care Of You
TTITLE3=The Soul Of A Man
TTITLE4=I Intend To Take Your Place
TTITLE5=Soon As The Weather Breaks
TTITLE6=Today I Started Loving You Again
TTITLE7=Share Your Love With Me
TTITLE8=Recess In Heaven
TTITLE9=That's The Way Love Is/ain't Nothin'...
TTITLE10=The Feeling Is Gone/stormy Monday...
TTITLE11=Farther Up The Road
EXTD=
EXTT0=
EXTT1=
EXTT2=
EXTT3=
EXTT4=
EXTT5=
EXTT6=
EXTT7=
EXTT8=
EXTT9=
EXTT10=
EXTT11=
PLAYORDER=
